<svg width="270" height="260" viewBox="0 0 270 260" fill="none" xmlns="http://www.w3.org/2000/svg">
<mask id="path-1-inside-1_304_266" fill="white">
<path fill-rule="evenodd" clip-rule="evenodd" d="M0 0H82.5723C82.5724 21.4759 97.536 38.8855 115.995 38.8855C134.453 38.8855 149.417 21.4759 149.417 0H233.301V73.3813C234.379 73.2592 235.472 73.1968 236.578 73.1968C255.036 73.1968 270 90.6065 270 112.082C270 133.558 255.036 150.968 236.578 150.968C235.472 150.968 234.379 150.906 233.301 150.784V221.43H149.416C149.27 242.761 134.363 260 115.995 260C97.6266 260 82.7193 242.761 82.5734 221.43H0V0Z"/>
</mask>
<path d="M82.5723 0L84.5723 -4.97356e-06L84.5723 -2H82.5723V0ZM0 0V-2H-2V0H0ZM149.417 0V-2H147.417L147.417 -4.26305e-06L149.417 0ZM233.301 0H235.301V-2H233.301V0ZM233.301 73.3813H231.301V75.6205L233.526 75.3686L233.301 73.3813ZM233.301 150.784L233.526 148.796L231.301 148.544V150.784H233.301ZM233.301 221.43V223.43H235.301V221.43H233.301ZM149.416 221.43V219.43H147.429L147.416 221.416L149.416 221.43ZM82.5734 221.43L84.5733 221.416L84.5598 219.43H82.5734V221.43ZM0 221.43H-2V223.43H0V221.43ZM82.5723 -2H0V2H82.5723V-2ZM115.995 36.8855C98.914 36.8855 84.5724 20.6662 84.5723 -4.97356e-06L80.5723 4.97356e-06C80.5724 22.2856 96.158 40.8855 115.995 40.8855V36.8855ZM147.417 -4.26305e-06C147.417 20.6662 133.075 36.8855 115.995 36.8855V40.8855C135.831 40.8855 151.417 22.2856 151.417 4.26305e-06L147.417 -4.26305e-06ZM233.301 -2H149.417V2H233.301V-2ZM235.301 73.3813V0H231.301V73.3813H235.301ZM236.578 71.1968C235.397 71.1968 234.228 71.2635 233.076 71.394L233.526 75.3686C234.529 75.255 235.547 75.1968 236.578 75.1968V71.1968ZM272 112.082C272 89.7967 256.414 71.1968 236.578 71.1968V75.1968C253.658 75.1968 268 91.4162 268 112.082H272ZM236.578 152.968C256.414 152.968 272 134.368 272 112.082H268C268 132.749 253.658 148.968 236.578 148.968V152.968ZM233.076 152.771C234.228 152.901 235.397 152.968 236.578 152.968V148.968C235.547 148.968 234.529 148.91 233.526 148.796L233.076 152.771ZM235.301 221.43V150.784H231.301V221.43H235.301ZM149.416 223.43H233.301V219.43H149.416V223.43ZM147.416 221.416C147.275 241.94 132.992 258 115.995 258V262C135.733 262 151.264 243.581 151.416 221.444L147.416 221.416ZM115.995 258C98.9972 258 84.7137 241.94 84.5733 221.416L80.5734 221.444C80.7249 243.581 96.2559 262 115.995 262V258ZM0 223.43H82.5734V219.43H0V223.43ZM-2 0V221.43H2V0H-2Z" fill="#F2EEE0" mask="url(#path-1-inside-1_304_266)"/>
</svg>
