<svg width="270" height="260" viewBox="0 0 270 260" fill="none" xmlns="http://www.w3.org/2000/svg">
<mask id="path-1-inside-1_304_277" fill="white">
<path fill-rule="evenodd" clip-rule="evenodd" d="M233.301 38.8385L150.073 38.8385C150.073 17.3886 135.109 0 116.65 0C98.1917 0 83.228 17.3886 83.228 38.8385L0 38.8385V112.013C17.5436 113.195 31.4563 130.102 31.4563 150.785C31.4563 171.468 17.5436 188.375 0 189.557V260H83.2291C83.2284 259.895 83.228 259.79 83.228 259.685C83.228 238.235 98.1917 220.846 116.65 220.846C135.109 220.846 150.073 238.235 150.073 259.685C150.073 259.79 150.072 259.895 150.072 260H233.301V187.916C234.379 188.038 235.472 188.1 236.577 188.1C255.036 188.1 270 170.712 270 149.262C270 127.812 255.036 110.423 236.577 110.423C235.472 110.423 234.379 110.486 233.301 110.608V38.8385Z"/>
</mask>
<path d="M150.073 38.8385H148.073V40.8385L150.073 40.8385L150.073 38.8385ZM233.301 38.8385H235.301V36.8385L233.301 36.8385L233.301 38.8385ZM83.228 38.8385L83.228 40.8385L85.228 40.8385V38.8385H83.228ZM0 38.8385L-1.10002e-06 36.8385L-2 36.8385V38.8385H0ZM0 112.013H-2V113.882L-0.134507 114.008L0 112.013ZM0 189.557L-0.134507 187.562L-2 187.688V189.557H0ZM0 260H-2V262H0V260ZM83.2291 260V262H85.2428L85.2291 259.986L83.2291 260ZM150.072 260L148.072 259.986L148.058 262H150.072V260ZM233.301 260V262H235.301V260H233.301ZM233.301 187.916L233.526 185.929L231.301 185.677V187.916H233.301ZM233.301 110.608H231.301V112.847L233.526 112.595L233.301 110.608ZM150.073 40.8385L233.301 40.8385L233.301 36.8385L150.073 36.8385L150.073 40.8385ZM116.65 2C133.733 2 148.073 18.2007 148.073 38.8385H152.073C152.073 16.5764 136.485 -2 116.65 -2V2ZM85.228 38.8385C85.228 18.2007 99.5676 2 116.65 2V-2C96.8158 -2 81.228 16.5764 81.228 38.8385H85.228ZM1.10002e-06 40.8385L83.228 40.8385L83.228 36.8385L-1.10002e-06 36.8385L1.10002e-06 40.8385ZM2 112.013V38.8385H-2V112.013H2ZM33.4563 150.785C33.4563 129.307 18.9666 111.286 0.134507 110.017L-0.134507 114.008C16.1205 115.104 29.4563 130.897 29.4563 150.785H33.4563ZM0.134507 191.553C18.9666 190.283 33.4563 172.263 33.4563 150.785H29.4563C29.4563 170.673 16.1205 186.466 -0.134507 187.562L0.134507 191.553ZM2 260V189.557H-2V260H2ZM83.2291 258H0V262H83.2291V258ZM85.2291 259.986C85.2284 259.886 85.228 259.785 85.228 259.685H81.228C81.228 259.794 81.2284 259.904 81.2291 260.014L85.2291 259.986ZM85.228 259.685C85.228 239.047 99.5676 222.846 116.65 222.846V218.846C96.8158 218.846 81.228 237.423 81.228 259.685H85.228ZM116.65 222.846C133.733 222.846 148.073 239.047 148.073 259.685H152.073C152.073 237.423 136.485 218.846 116.65 218.846V222.846ZM148.073 259.685C148.073 259.785 148.072 259.886 148.072 259.986L152.072 260.014C152.072 259.904 152.073 259.795 152.073 259.685H148.073ZM233.301 258H150.072V262H233.301V258ZM231.301 187.916V260H235.301V187.916H231.301ZM236.577 186.1C235.547 186.1 234.529 186.042 233.526 185.929L233.076 189.904C234.229 190.034 235.397 190.1 236.577 190.1V186.1ZM268 149.262C268 169.9 253.66 186.1 236.577 186.1V190.1C256.412 190.1 272 171.524 272 149.262H268ZM236.577 112.423C253.66 112.423 268 128.624 268 149.262H272C272 127 256.412 108.423 236.577 108.423V112.423ZM233.526 112.595C234.529 112.482 235.547 112.423 236.577 112.423V108.423C235.397 108.423 234.229 108.49 233.076 108.62L233.526 112.595ZM231.301 38.8385V110.608H235.301V38.8385H231.301Z" fill="#F2EEE0" mask="url(#path-1-inside-1_304_277)"/>
</svg>
