<svg width="270" height="260" viewBox="0 0 270 260" fill="none" xmlns="http://www.w3.org/2000/svg">
<mask id="path-1-inside-1_304_299" fill="white">
<path fill-rule="evenodd" clip-rule="evenodd" d="M79.3256 0H0V71.6719H0.0018692C18.4608 71.6719 33.4247 89.0816 33.4247 110.558C33.4247 132.034 18.4608 149.443 0.0018692 149.443H0V221.43H86.5052C86.6512 242.761 101.559 260 119.927 260C138.295 260 153.203 242.761 153.349 221.43H233.304V147.734C234.381 147.856 235.473 147.918 236.577 147.918C255.036 147.918 270 130.509 270 109.033C270 87.5567 255.036 70.147 236.577 70.147C235.473 70.147 234.381 70.2093 233.304 70.3311V0H146.121C145.432 20.7691 130.743 37.3607 112.723 37.3607C94.7032 37.3607 80.014 20.7691 79.3256 0Z"/>
</mask>
<path d="M0 0V-2H-2V0H0ZM79.3256 0L81.3245 -0.0662551L81.2604 -2H79.3256V0ZM0 71.6719H-2V73.6719H0V71.6719ZM0 149.443V147.443H-2V149.443H0ZM0 221.43H-2V223.43H0V221.43ZM86.5052 221.43L88.5052 221.417L88.4916 219.43H86.5052V221.43ZM153.349 221.43V219.43H151.362L151.349 221.417L153.349 221.43ZM233.304 221.43V223.43H235.304V221.43H233.304ZM233.304 147.734L233.529 145.747L231.304 145.495V147.734H233.304ZM233.304 70.3311H231.304V72.57L233.529 72.3184L233.304 70.3311ZM233.304 0H235.304V-2H233.304V0ZM146.121 0V-2H144.186L144.122 -0.0662558L146.121 0ZM0 2H79.3256V-2H0V2ZM2 71.6719V0H-2V71.6719H2ZM0.0018692 69.6719H0V73.6719H0.0018692V69.6719ZM35.4247 110.558C35.4247 88.2718 19.8387 69.6719 0.0018692 69.6719V73.6719C17.0828 73.6719 31.4247 89.8913 31.4247 110.558H35.4247ZM0.0018692 151.443C19.8387 151.443 35.4247 132.843 35.4247 110.558H31.4247C31.4247 131.224 17.0828 147.443 0.0018692 147.443V151.443ZM0 151.443H0.0018692V147.443H0V151.443ZM2 221.43V149.443H-2V221.43H2ZM86.5052 219.43H0V223.43H86.5052V219.43ZM119.927 258C102.929 258 88.6456 241.941 88.5052 221.417L84.5053 221.444C84.6568 243.581 100.188 262 119.927 262V258ZM151.349 221.417C151.208 241.941 136.925 258 119.927 258V262C139.666 262 155.197 243.581 155.349 221.444L151.349 221.417ZM233.304 219.43H153.349V223.43H233.304V219.43ZM231.304 147.734V221.43H235.304V147.734H231.304ZM236.577 145.918C235.548 145.918 234.531 145.86 233.529 145.747L233.079 149.722C234.231 149.852 235.398 149.918 236.577 149.918V145.918ZM268 109.033C268 129.699 253.658 145.918 236.577 145.918V149.918C256.414 149.918 272 131.318 272 109.033H268ZM236.577 72.147C253.658 72.147 268 88.3664 268 109.033H272C272 86.7469 256.414 68.147 236.577 68.147V72.147ZM233.529 72.3184C234.531 72.205 235.548 72.147 236.577 72.147V68.147C235.398 68.147 234.231 68.2136 233.079 68.3438L233.529 72.3184ZM231.304 0V70.3311H235.304V0H231.304ZM146.121 2H233.304V-2H146.121V2ZM144.122 -0.0662558C143.46 19.9093 129.401 35.3607 112.723 35.3607V39.3607C132.086 39.3607 147.405 21.629 148.12 0.0662558L144.122 -0.0662558ZM112.723 35.3607C96.0457 35.3607 81.9866 19.9093 81.3245 -0.0662551L77.3267 0.0662551C78.0414 21.629 93.3606 39.3607 112.723 39.3607V35.3607Z" fill="#F2EEE0" mask="url(#path-1-inside-1_304_299)"/>
</svg>
