<svg width="270" height="260" viewBox="0 0 270 260" fill="none" xmlns="http://www.w3.org/2000/svg">
<mask id="path-1-inside-1_304_253" fill="white">
<path fill-rule="evenodd" clip-rule="evenodd" d="M234.439 38.8385L146.852 38.8385C146.852 17.3886 131.816 0 113.267 0C94.7182 0 79.6816 17.3886 79.6816 38.8385L0 38.8385V108.9H0.00113678C18.5498 108.9 33.5864 126.289 33.5864 147.739C33.5864 169.188 18.5498 186.577 0.00113678 186.577H0V260H79.6826C79.6819 259.895 79.6816 259.79 79.6816 259.685C79.6816 238.235 94.7182 220.846 113.267 220.846C131.816 220.846 146.852 238.235 146.852 259.685C146.852 259.79 146.852 259.895 146.851 260H234.439V186.511C235.092 186.555 235.751 186.577 236.415 186.577C254.963 186.577 270 169.188 270 147.739C270 126.289 254.963 108.9 236.415 108.9C235.751 108.9 235.092 108.922 234.439 108.966V38.8385Z"/>
</mask>
<path d="M146.852 38.8385H144.852V40.8385L146.852 40.8385L146.852 38.8385ZM234.439 38.8385H236.439V36.8385L234.439 36.8385L234.439 38.8385ZM79.6816 38.8385L79.6816 40.8385L81.6816 40.8385V38.8385H79.6816ZM0 38.8385L-1.05323e-06 36.8385L-2 36.8385V38.8385H0ZM0 108.9H-2V110.9H0V108.9ZM0 186.577V184.577H-2V186.577H0ZM0 260H-2V262H0V260ZM79.6826 260V262H81.6965L81.6826 259.986L79.6826 260ZM146.851 260L144.851 259.986L144.837 262H146.851V260ZM234.439 260V262H236.439V260H234.439ZM234.439 186.511L234.572 184.515L232.439 184.372V186.511H234.439ZM234.439 108.966H232.439V111.105L234.572 110.962L234.439 108.966ZM146.852 40.8385L234.439 40.8385L234.439 36.8385L146.852 36.8385L146.852 40.8385ZM113.267 2C130.448 2 144.852 18.2104 144.852 38.8385H148.852C148.852 16.5667 133.183 -2 113.267 -2V2ZM81.6816 38.8385C81.6816 18.2104 96.0857 2 113.267 2V-2C93.3507 -2 77.6816 16.5667 77.6816 38.8385H81.6816ZM1.05323e-06 40.8385L79.6816 40.8385L79.6816 36.8385L-1.05323e-06 36.8385L1.05323e-06 40.8385ZM2 108.9V38.8385H-2V108.9H2ZM0.00113678 106.9H0V110.9H0.00113678V106.9ZM35.5864 147.739C35.5864 125.467 19.9173 106.9 0.00113678 106.9V110.9C17.1823 110.9 31.5864 127.11 31.5864 147.739H35.5864ZM0.00113678 188.577C19.9173 188.577 35.5864 170.01 35.5864 147.739H31.5864C31.5864 168.367 17.1823 184.577 0.00113678 184.577V188.577ZM0 188.577H0.00113678V184.577H0V188.577ZM2 260V186.577H-2V260H2ZM79.6826 258H0V262H79.6826V258ZM81.6826 259.986C81.6819 259.886 81.6816 259.785 81.6816 259.685H77.6816C77.6816 259.794 77.6819 259.904 77.6827 260.014L81.6826 259.986ZM81.6816 259.685C81.6816 239.057 96.0857 222.846 113.267 222.846V218.846C93.3507 218.846 77.6816 237.413 77.6816 259.685H81.6816ZM113.267 222.846C130.448 222.846 144.852 239.057 144.852 259.685H148.852C148.852 237.413 133.183 218.846 113.267 218.846V222.846ZM144.852 259.685C144.852 259.785 144.852 259.886 144.851 259.986L148.851 260.014C148.852 259.904 148.852 259.795 148.852 259.685H144.852ZM234.439 258H146.851V262H234.439V258ZM232.439 186.511V260H236.439V186.511H232.439ZM236.415 184.577C235.796 184.577 235.182 184.556 234.572 184.515L234.305 188.506C235.003 188.553 235.707 188.577 236.415 188.577V184.577ZM268 147.739C268 168.367 253.596 184.577 236.415 184.577V188.577C256.331 188.577 272 170.01 272 147.739H268ZM236.415 110.9C253.596 110.9 268 127.11 268 147.739H272C272 125.467 256.331 106.9 236.415 106.9V110.9ZM234.572 110.962C235.182 110.921 235.796 110.9 236.415 110.9V106.9C235.707 106.9 235.003 106.924 234.305 106.971L234.572 110.962ZM232.439 38.8385V108.966H236.439V38.8385H232.439Z" fill="#F2EEE0" mask="url(#path-1-inside-1_304_253)"/>
</svg>
