<svg width="270" height="260" viewBox="0 0 270 260" fill="none" xmlns="http://www.w3.org/2000/svg">
<mask id="path-1-inside-1_304_289" fill="white">
<path fill-rule="evenodd" clip-rule="evenodd" d="M0 0H96.3193C96.3194 21.4759 113.637 38.8855 134.999 38.8855C156.361 38.8855 173.679 21.4759 173.679 0H270V221.43H173.678C173.509 242.761 156.257 260 134.999 260C113.742 260 96.4894 242.761 96.3206 221.43H0V147.652C19.2184 145.388 34.1305 128.961 34.1305 109.032C34.1305 89.1034 19.2184 72.6762 0 70.4126V0Z"/>
</mask>
<path d="M96.3193 0L98.3193 -5.68406e-06L98.3193 -2H96.3193V0ZM0 0V-2H-2V0H0ZM173.679 0V-2H171.679L171.679 -5.68406e-06L173.679 0ZM270 0H272V-2H270V0ZM270 221.43V223.43H272V221.43H270ZM173.678 221.43V219.43H171.693L171.678 221.414L173.678 221.43ZM96.3206 221.43L98.3205 221.414L98.3048 219.43H96.3206V221.43ZM0 221.43H-2V223.43H0V221.43ZM0 147.652L-0.233946 145.665L-2 145.873V147.652H0ZM0 70.4126H-2V72.1909L-0.233946 72.3989L0 70.4126ZM96.3193 -2H0V2H96.3193V-2ZM134.999 36.8855C114.751 36.8855 98.3194 20.3813 98.3193 -5.68406e-06L94.3193 5.68406e-06C94.3194 22.5704 112.522 40.8855 134.999 40.8855V36.8855ZM171.679 -5.68406e-06C171.679 20.3813 155.247 36.8855 134.999 36.8855V40.8855C157.476 40.8855 175.679 22.5704 175.679 5.68406e-06L171.679 -5.68406e-06ZM270 -2H173.679V2H270V-2ZM272 221.43V0H268V221.43H272ZM173.678 223.43H270V219.43H173.678V223.43ZM171.678 221.414C171.517 241.657 155.147 258 134.999 258V262C157.366 262 175.5 243.864 175.678 221.446L171.678 221.414ZM134.999 258C114.851 258 98.4808 241.657 98.3205 221.414L94.3206 221.446C94.4981 243.864 112.633 262 134.999 262V258ZM0 223.43H96.3206V219.43H0V223.43ZM-2 147.652V221.43H2V147.652H-2ZM32.1305 109.032C32.1305 127.943 17.9809 143.52 -0.233946 145.665L0.233946 149.638C20.4559 147.256 36.1305 129.978 36.1305 109.032H32.1305ZM-0.233946 72.3989C17.9809 74.5442 32.1305 90.1211 32.1305 109.032H36.1305C36.1305 88.0858 20.4559 70.8081 0.233946 68.4263L-0.233946 72.3989ZM-2 0V70.4126H2V0H-2Z" fill="#F2EEE0" mask="url(#path-1-inside-1_304_289)"/>
</svg>
