<svg width="270" height="250" viewBox="0 0 270 250" fill="none" xmlns="http://www.w3.org/2000/svg">
<mask id="path-1-inside-1_300_241" fill="white">
<path fill-rule="evenodd" clip-rule="evenodd" d="M233.301 37.3447H150.073C150.073 16.7198 135.109 0 116.65 0C98.1917 0 83.228 16.7198 83.228 37.3447H0V107.704C17.5435 108.841 31.4561 125.098 31.4561 144.985C31.4561 164.873 17.5435 181.129 0 182.266V250H83.2291C83.2284 249.899 83.228 249.798 83.228 249.697C83.228 229.072 98.1917 212.352 116.65 212.352C135.109 212.352 150.073 229.072 150.073 249.697C150.073 249.798 150.072 249.899 150.072 250H233.301V180.688C234.379 180.806 235.472 180.866 236.578 180.866C255.036 180.866 270 164.146 270 143.521C270 122.896 255.036 106.176 236.578 106.176C235.472 106.176 234.379 106.236 233.301 106.353V37.3447Z"/>
</mask>
<path d="M150.073 37.3447H148.073V39.3447H150.073V37.3447ZM233.301 37.3447H235.301V35.3447H233.301V37.3447ZM83.228 37.3447V39.3447H85.228V37.3447H83.228ZM0 37.3447V35.3447H-2V37.3447H0ZM0 107.704H-2V109.579L-0.12937 109.7L0 107.704ZM0 182.266L-0.12937 180.271L-2 180.392V182.266H0ZM0 250H-2V252H0V250ZM83.2291 250V252H85.2434L85.2291 249.986L83.2291 250ZM150.072 250L148.072 249.986L148.057 252H150.072V250ZM233.301 250V252H235.301V250H233.301ZM233.301 180.688L233.517 178.7L231.301 178.459V180.688H233.301ZM233.301 106.353H231.301V108.583L233.517 108.342L233.301 106.353ZM150.073 39.3447H233.301V35.3447H150.073V39.3447ZM116.65 2C133.801 2 148.073 17.6099 148.073 37.3447H152.073C152.073 15.8297 136.416 -2 116.65 -2V2ZM85.228 37.3447C85.228 17.6099 99.4992 2 116.65 2V-2C96.8842 -2 81.228 15.8297 81.228 37.3447H85.228ZM0 39.3447H83.228V35.3447H0V39.3447ZM2 107.704V37.3447H-2V107.704H2ZM33.4561 144.985C33.4561 124.231 18.9025 106.925 0.12937 105.708L-0.12937 109.7C16.1844 110.757 29.4561 125.965 29.4561 144.985H33.4561ZM0.12937 184.262C18.9025 183.045 33.4561 165.739 33.4561 144.985H29.4561C29.4561 164.006 16.1844 179.213 -0.12937 180.271L0.12937 184.262ZM2 250V182.266H-2V250H2ZM83.2291 248H0V252H83.2291V248ZM85.2291 249.986C85.2284 249.89 85.228 249.793 85.228 249.697H81.228C81.228 249.803 81.2284 249.908 81.2292 250.014L85.2291 249.986ZM85.228 249.697C85.228 229.962 99.4992 214.352 116.65 214.352V210.352C96.8842 210.352 81.228 228.182 81.228 249.697H85.228ZM116.65 214.352C133.801 214.352 148.073 229.962 148.073 249.697H152.073C152.073 228.182 136.416 210.352 116.65 210.352V214.352ZM148.073 249.697C148.073 249.793 148.072 249.889 148.072 249.986L152.072 250.014C152.072 249.909 152.073 249.803 152.073 249.697H148.073ZM233.301 248H150.072V252H233.301V248ZM231.301 180.688V250H235.301V180.688H231.301ZM236.578 178.866C235.545 178.866 234.524 178.81 233.517 178.7L233.085 182.677C234.234 182.802 235.4 182.866 236.578 182.866V178.866ZM268 143.521C268 163.256 253.729 178.866 236.578 178.866V182.866C256.344 182.866 272 165.036 272 143.521H268ZM236.578 108.176C253.729 108.176 268 123.786 268 143.521H272C272 122.006 256.344 104.176 236.578 104.176V108.176ZM233.517 108.342C234.524 108.232 235.545 108.176 236.578 108.176V104.176C235.4 104.176 234.234 104.24 233.085 104.365L233.517 108.342ZM231.301 37.3447V106.353H235.301V37.3447H231.301Z" fill="#F2EEE0" mask="url(#path-1-inside-1_300_241)"/>
</svg>
