<svg width="169" height="169" viewBox="0 0 169 169" fill="none" xmlns="http://www.w3.org/2000/svg">
<path d="M29.2929 84.8563C28.9024 84.4658 28.9024 83.8326 29.2929 83.4421L35.6569 77.0781C36.0474 76.6876 36.6805 76.6876 37.0711 77.0781C37.4616 77.4686 37.4616 78.1018 37.0711 78.4923L31.4142 84.1492L37.0711 89.806C37.4616 90.1966 37.4616 90.8297 37.0711 91.2202C36.6805 91.6108 36.0474 91.6108 35.6569 91.2202L29.2929 84.8563ZM169 85.1492L30 85.1492L30 83.1492L169 83.1492L169 85.1492Z" fill="#F2EEE0"/>
<path d="M56.5585 1.00003C45.6392 5.52295 35.7176 12.1523 27.3604 20.5096C19.0031 28.8669 12.3738 38.7884 7.85083 49.7077C3.3279 60.627 0.999981 72.3302 0.999981 84.1492C0.999981 95.9682 3.3279 107.671 7.85082 118.591C12.3737 129.51 19.0031 139.432 27.3604 147.789C35.7176 156.146 45.6392 162.775 56.5585 167.298" stroke="#F2EEE0" stroke-width="2"/>
</svg>
