<svg width="169" height="170" viewBox="0 0 169 170" fill="none" xmlns="http://www.w3.org/2000/svg">
<path d="M139.707 85.7071C140.098 85.3166 140.098 84.6834 139.707 84.2929L133.343 77.9289C132.953 77.5384 132.319 77.5384 131.929 77.9289C131.538 78.3195 131.538 78.9526 131.929 79.3432L137.586 85L131.929 90.6569C131.538 91.0474 131.538 91.6806 131.929 92.0711C132.319 92.4616 132.953 92.4616 133.343 92.0711L139.707 85.7071ZM-8.74228e-08 86L139 86L139 84L8.74228e-08 84L-8.74228e-08 86Z" fill="#F2EEE0"/>
<path d="M112.441 1.85086C123.361 6.37378 133.282 13.0031 141.64 21.3604C149.997 29.7177 156.626 39.6392 161.149 50.5585C165.672 61.4778 168 73.181 168 85C168 96.819 165.672 108.522 161.149 119.442C156.626 130.361 149.997 140.282 141.64 148.64C133.282 156.997 123.361 163.626 112.441 168.149" stroke="#F2EEE0" stroke-width="2"/>
</svg>
