<svg width="40" height="26" viewBox="0 0 40 26" fill="none" xmlns="http://www.w3.org/2000/svg">
<path d="M16.1474 11.6223C16.1474 11.6223 19.9322 11.3328 19.9322 6.77839C19.9322 2.21809 16.8355 0 12.9107 0H0V25.4628H12.9107C12.9107 25.4628 20.7944 25.7169 20.7944 17.9457C20.7924 17.9437 21.1364 11.6223 16.1474 11.6223ZM5.6892 4.52286H12.9107C12.9107 4.52286 14.6671 4.52286 14.6671 7.17039C14.6671 9.82186 13.6349 10.206 12.4626 10.206H5.6892V4.52286ZM12.5446 20.936H5.6892V14.13H12.9107C12.9107 14.13 15.5273 14.0945 15.5273 17.6266C15.5273 20.605 13.5729 20.9143 12.5446 20.936ZM31.3046 6.47502C21.7606 6.47502 21.7686 16.2595 21.7686 16.2595C21.7686 16.2595 21.1164 25.9927 31.3046 25.9927C31.3046 25.9927 39.7924 26.493 39.7924 19.2222H35.4275C35.4275 19.2222 35.5715 21.9623 31.4506 21.9623C31.4506 21.9623 27.0817 22.2617 27.0817 17.53H39.9304C39.9324 17.5281 41.3487 6.47502 31.3046 6.47502ZM35.1874 14.13H27.0377C27.0377 14.13 27.5698 10.206 31.4026 10.206C35.2354 10.206 35.1874 14.13 35.1874 14.13ZM36.2016 1.49514H25.9655V4.63515H36.2016V1.49514Z" fill="#222222"/>
</svg>
