<svg width="135" height="115" viewBox="0 0 135 115" fill="none" xmlns="http://www.w3.org/2000/svg">
<g filter="url(#filter0_d_64_94)">
<path d="M20.3488 20.0676C20.1216 13.2699 25.2294 7 32.1326 7H102.877C109.78 7 114.888 13.2699 114.661 20.0676C114.44 26.5997 114.725 35.0603 116.779 41.9575C118.834 48.8547 122.313 53.2427 128 53.8136V60.1864C122.313 60.7473 118.837 65.122 116.779 72.0425C114.722 78.963 114.443 87.4003 114.661 93.949C114.888 100.747 109.78 107.017 102.877 107.017H32.1326C25.2294 107.017 20.1216 100.747 20.3488 93.949C20.5664 87.4169 20.2816 78.9563 18.2301 72.0425C16.1787 65.1286 12.6903 60.7573 7 60.1864V53.8136C12.6871 53.2526 16.1691 48.878 18.2301 41.9575C20.2912 35.037 20.5664 26.5997 20.3488 20.0676Z" fill="url(#paint0_linear_64_94)"/>
<path d="M69.0809 83.1963C80.2598 83.1963 87.003 77.5206 87.003 68.1572C87.003 61.0807 82.2025 55.9559 75.0624 55.146V54.8506C80.3047 53.9644 84.4203 48.9159 84.4203 43.2767C84.4203 35.241 78.3044 30 68.9817 30H48V83.1963H69.0809ZM56.1546 36.7545H67.0039C72.9022 36.7545 76.253 39.4829 76.253 44.4218C76.253 49.6926 72.3581 52.6401 65.2949 52.6401H56.1546V36.7545ZM56.1546 76.4518V58.9365H66.9303C74.6496 58.9365 78.6532 61.8839 78.6532 67.6361C78.6532 73.3882 74.7616 76.4518 67.4167 76.4518H56.1546Z" fill="url(#paint1_linear_64_94)" stroke="white"/>
</g>
<defs>
<filter id="filter0_d_64_94" x="0" y="0" width="135" height="114.017" filterUnits="userSpaceOnUse" color-interpolation-filters="sRGB">
<feFlood flood-opacity="0" result="BackgroundImageFix"/>
<feColorMatrix in="SourceAlpha" type="matrix" values="0 0 0 0 0 0 0 0 0 0 0 0 0 0 0 0 0 0 127 0" result="hardAlpha"/>
<feOffset/>
<feGaussianBlur stdDeviation="3.5"/>
<feComposite in2="hardAlpha" operator="out"/>
<feColorMatrix type="matrix" values="0 0 0 0 0.754167 0 0 0 0 0.754167 0 0 0 0 0.754167 0 0 0 0.08 0"/>
<feBlend mode="normal" in2="BackgroundImageFix" result="effect1_dropShadow_64_94"/>
<feBlend mode="normal" in="SourceGraphic" in2="effect1_dropShadow_64_94" result="shape"/>
</filter>
<linearGradient id="paint0_linear_64_94" x1="19.1839" y1="17.2197" x2="127.871" y2="100.406" gradientUnits="userSpaceOnUse">
<stop stop-color="#9013FE"/>
<stop offset="1" stop-color="#6610F2"/>
</linearGradient>
<linearGradient id="paint1_linear_64_94" x1="50.6563" y1="34.1423" x2="75.5898" y2="74.799" gradientUnits="userSpaceOnUse">
<stop stop-color="white"/>
<stop offset="1" stop-color="#F1E5FC"/>
</linearGradient>
</defs>
</svg>
