<svg width="200" height="93" viewBox="0 0 200 93" fill="none" xmlns="http://www.w3.org/2000/svg">
<g filter="url(#filter0_d_64_95)">
<path d="M131.591 33.9301C133.339 36.0483 134.303 38.7187 134.315 41.4801C134.315 49.7701 127.9 54.6301 118.614 54.6301C116.653 54.6543 114.697 54.4292 112.792 53.9601L110.354 57.9601L117.578 58.4101C130.338 59.2301 137.847 59.6101 137.847 69.5401C137.847 78.1301 130.407 82.99 117.578 82.99C104.236 82.99 99.1442 79.5501 99.1442 73.6501C99.1442 70.2901 100.615 68.5001 103.2 66.0301C102.211 65.6665 101.362 64.992 100.778 64.1051C100.194 63.2182 99.9051 62.1653 99.9534 61.1001C100.053 59.3552 100.821 57.7189 102.095 56.5401C103.427 55.1201 104.897 53.7 106.664 52.06C103.052 50.27 100.318 46.3801 100.318 40.8501C100.318 32.2601 105.924 26.3601 117.203 26.3601C119.489 26.2979 121.773 26.5502 123.992 27.1101H138.37V33.4601L131.591 33.9301ZM109.772 68C108.785 69.19 107.858 70.46 107.858 72C107.858 75 111.618 75.8801 116.739 75.8801C121.012 75.8801 126.844 75.58 126.844 71.55C126.844 69.16 124.042 69.0101 120.499 68.7801L109.772 68ZM117.884 33.7001C113.828 33.7001 110.808 35.7001 110.808 40.5801C110.808 44.2401 112.782 46.7801 117.716 46.7801C121.841 46.7801 124.624 44.3201 124.624 40.4301C124.594 36.0201 122.088 33.7001 117.884 33.7001Z" fill="#F2EEE0"/>
<path d="M141.834 65.2V59.3L145.594 58.78C146.581 58.63 146.768 58.41 146.768 57.28V35.28C146.768 34.46 146.551 33.93 145.781 33.71L141.834 32.29L142.643 26.29H157.909V57.29C157.909 58.49 157.979 58.64 159.094 58.79L162.853 59.31V65.2H141.834ZM151.347 20.3C147.143 20.3 144.716 17.83 144.716 13.57C144.716 9.31001 147.143 7 151.347 7C155.551 7 158.058 9.32001 158.058 13.57C158.058 17.82 155.63 20.35 151.347 20.35V20.3Z" fill="#F2EEE0"/>
<path d="M192.004 62.3502C188.252 64.2007 184.156 65.2233 179.985 65.3502C171.212 65.3502 167.896 61.7702 167.896 53.3502V33.7402C167.896 33.2902 167.896 32.9902 167.304 32.9902H162.143V26.3402C168.636 25.5902 171.212 22.3402 172.011 14.1602H179.018V24.7702C179.018 25.2902 179.018 25.5202 179.61 25.5202H190.001V32.9902H179.028V50.8502C179.028 55.2602 180.014 56.9802 184.041 56.9802C186.084 56.9387 188.104 56.536 190.011 55.7902L192.004 62.3502Z" fill="#F2EEE0"/>
<path d="M82.733 42.7501L49.0231 8.59015C48.5639 8.11696 48.0163 7.74115 47.4123 7.48462C46.8083 7.22809 46.16 7.09595 45.5051 7.09595C44.8502 7.09595 44.2018 7.22809 43.5978 7.48462C42.9938 7.74115 42.4462 8.11696 41.987 8.59015L34.9905 15.6801L43.8719 24.6801C44.9187 24.3256 46.0425 24.2745 47.1164 24.5328C48.1903 24.7911 49.1715 25.3485 49.9494 26.142C50.7273 26.9354 51.2708 27.9335 51.5187 29.0234C51.7665 30.1133 51.7088 31.2517 51.352 32.3101L59.9078 40.9801C61.1881 40.5331 62.581 40.5442 63.8542 41.0118C65.1274 41.4794 66.2039 42.3752 66.9043 43.5497C67.6047 44.7242 67.8866 46.1065 67.703 47.4662C67.5194 48.8258 66.8815 50.0806 65.8955 51.0213C64.9095 51.962 63.6351 52.5318 62.2847 52.6356C60.9344 52.7395 59.5897 52.3711 58.475 51.5919C57.3602 50.8128 56.5427 49.6699 56.1587 48.3539C55.7748 47.0379 55.8476 45.6283 56.3651 44.3601L48.3817 36.2701V57.5501C49.5962 58.157 50.5687 59.1674 51.1371 60.4128C51.7056 61.6583 51.8355 63.0635 51.5054 64.3943C51.1753 65.7251 50.405 66.901 49.3229 67.726C48.2408 68.551 46.9124 68.9752 45.5591 68.9279C44.2058 68.8806 42.9093 68.3647 41.8859 67.4661C40.8625 66.5676 40.174 65.3407 39.9351 63.99C39.6962 62.6393 39.9214 61.2465 40.5731 60.0436C41.2249 58.8408 42.2638 57.9008 43.5166 57.3801V35.9001C42.7778 35.6038 42.1063 35.1581 41.543 34.5901C40.7145 33.7489 40.1512 32.6772 39.9245 31.5111C39.6979 30.345 39.8181 29.1369 40.27 28.0401L31.5859 19.2001L8.47448 42.6201C8.00754 43.0855 7.63667 43.6403 7.38352 44.2524C7.13037 44.8645 7 45.5215 7 46.1851C7 46.8488 7.13037 47.5058 7.38352 48.1179C7.63667 48.7299 8.00754 49.2848 8.47448 49.7501L42.1844 83.9102C42.6436 84.3833 43.1912 84.7592 43.7952 85.0157C44.3992 85.2722 45.0475 85.4043 45.7024 85.4043C46.3574 85.4043 47.0057 85.2722 47.6097 85.0157C48.2137 84.7592 48.7613 84.3833 49.2205 83.9102L82.7725 49.9102C83.2414 49.4417 83.613 48.8828 83.8655 48.2665C84.1179 47.6502 84.2461 46.989 84.2424 46.3217C84.2387 45.6545 84.1033 44.9947 83.844 44.3813C83.5848 43.7679 83.2071 43.2133 82.733 42.7501Z" fill="#F42534"/>
</g>
<defs>
<filter id="filter0_d_64_95" x="0" y="0" width="199.004" height="92.4043" filterUnits="userSpaceOnUse" color-interpolation-filters="sRGB">
<feFlood flood-opacity="0" result="BackgroundImageFix"/>
<feColorMatrix in="SourceAlpha" type="matrix" values="0 0 0 0 0 0 0 0 0 0 0 0 0 0 0 0 0 0 127 0" result="hardAlpha"/>
<feOffset/>
<feGaussianBlur stdDeviation="3.5"/>
<feComposite in2="hardAlpha" operator="out"/>
<feColorMatrix type="matrix" values="0 0 0 0 0.754167 0 0 0 0 0.754167 0 0 0 0 0.754167 0 0 0 0.08 0"/>
<feBlend mode="normal" in2="BackgroundImageFix" result="effect1_dropShadow_64_95"/>
<feBlend mode="normal" in="SourceGraphic" in2="effect1_dropShadow_64_95" result="shape"/>
</filter>
</defs>
</svg>
