<svg width="41" height="39" viewBox="0 0 41 39" fill="none" xmlns="http://www.w3.org/2000/svg">
<path d="M25.625 19.5C25.625 20.4642 25.3244 21.4067 24.7613 22.2084C24.1981 23.0101 23.3977 23.6349 22.4613 24.0039C21.5248 24.3729 20.4943 24.4694 19.5002 24.2813C18.506 24.0932 17.5928 23.6289 16.8761 22.9471C16.1593 22.2654 15.6712 21.3967 15.4735 20.4511C15.2757 19.5054 15.3772 18.5252 15.7651 17.6344C16.153 16.7436 16.8099 15.9823 17.6527 15.4466C18.4955 14.9109 19.4864 14.625 20.5 14.625C21.8579 14.629 23.159 15.1439 24.1193 16.0573C25.0795 16.9707 25.6208 18.2083 25.625 19.5ZM36.5156 12.7969V26.2031C36.5156 28.4658 35.5707 30.6357 33.8887 32.2356C32.2068 33.8355 29.9255 34.7344 27.5469 34.7344H13.4531C11.0745 34.7344 8.79323 33.8355 7.11126 32.2356C5.42929 30.6357 4.48438 28.4658 4.48438 26.2031V12.7969C4.48438 10.5342 5.42929 8.36429 7.11126 6.76437C8.79323 5.16445 11.0745 4.26563 13.4531 4.26562H27.5469C29.9255 4.26563 32.2068 5.16445 33.8887 6.76437C35.5707 8.36429 36.5156 10.5342 36.5156 12.7969ZM28.1875 19.5C28.1875 18.0537 27.7366 16.6399 26.8919 15.4374C26.0472 14.2349 24.8466 13.2976 23.4419 12.7441C22.0372 12.1907 20.4915 12.0459 19.0002 12.328C17.509 12.6102 16.1392 13.3066 15.0641 14.3293C13.989 15.352 13.2568 16.6549 12.9602 18.0734C12.6636 19.4919 12.8158 20.9622 13.3977 22.2984C13.9795 23.6346 14.9649 24.7766 16.2291 25.5801C17.4933 26.3836 18.9796 26.8125 20.5 26.8125C22.5389 26.8125 24.4942 26.0421 25.9359 24.6707C27.3776 23.2994 28.1875 21.4394 28.1875 19.5ZM30.75 11.5781C30.75 11.2166 30.6373 10.8631 30.4261 10.5625C30.2149 10.2618 29.9148 10.0275 29.5636 9.88916C29.2124 9.75079 28.826 9.71459 28.4532 9.78513C28.0804 9.85567 27.7379 10.0298 27.4692 10.2854C27.2004 10.5411 27.0173 10.8669 26.9432 11.2215C26.869 11.5761 26.9071 11.9437 27.0525 12.2777C27.198 12.6118 27.4443 12.8973 27.7604 13.0982C28.0764 13.299 28.448 13.4062 28.8281 13.4062C29.3378 13.4062 29.8267 13.2136 30.1871 12.8708C30.5475 12.528 30.75 12.063 30.75 11.5781Z" fill="#222222"/>
</svg>
