<svg width="40" height="39" viewBox="0 0 40 39" fill="none" xmlns="http://www.w3.org/2000/svg">
<path d="M8.33992 11.375H8.29159C7.77983 11.4062 7.26698 11.334 6.78515 11.163C6.30332 10.992 5.86288 10.7259 5.49142 10.3812C5.11996 10.0366 4.82548 9.62093 4.62641 9.1602C4.42734 8.69948 4.32798 8.20365 4.33453 7.70375C4.34109 7.20385 4.45343 6.71066 4.66452 6.25505C4.87561 5.79944 5.1809 5.39123 5.56127 5.05597C5.94165 4.72072 6.38892 4.46564 6.87508 4.30671C7.36124 4.14779 7.87582 4.08843 8.38659 4.13237C8.89836 4.09751 9.41199 4.1661 9.8953 4.33383C10.3786 4.50156 10.8212 4.76482 11.1953 5.10711C11.5693 5.4494 11.8669 5.86333 12.0692 6.32297C12.2715 6.78262 12.3743 7.27805 12.3711 7.77823C12.3679 8.27841 12.2587 8.77255 12.0505 9.22967C11.8422 9.6868 11.5394 10.0971 11.1609 10.4347C10.7825 10.7724 10.3365 11.0302 9.85111 11.192C9.36568 11.3538 8.8512 11.4161 8.33992 11.375ZM5.02992 16.25H11.6966V35.75H5.02992V16.25ZM29.1966 16.25C28.0732 16.253 26.9651 16.5034 25.955 16.9826C24.9449 17.4618 24.0589 18.1574 23.3633 19.0174V16.25H16.6966V35.75H23.3633V26.8125C23.3633 25.9505 23.7144 25.1239 24.3396 24.5144C24.9647 23.9049 25.8125 23.5625 26.6966 23.5625C27.5806 23.5625 28.4285 23.9049 29.0536 24.5144C29.6787 25.1239 30.0299 25.9505 30.0299 26.8125V35.75H36.6966V23.5625C36.6966 21.6231 35.9064 19.7631 34.4999 18.3918C33.0934 17.0204 31.1857 16.25 29.1966 16.25Z" fill="#222222"/>
</svg>
