<svg width="178" height="74" viewBox="0 0 178 74" fill="none" xmlns="http://www.w3.org/2000/svg">
<path d="M0 40.908H178V73.547H0V40.908Z" fill="#0B75FE"/>
<path fill-rule="evenodd" clip-rule="evenodd" d="M56.5287 40.9075H65.3307V43.6276H56.5287V40.9075ZM65.3316 40.9075H178V73.5465H70.6124H60.0498V70.8269H54.7681V65.3871H65.3316V59.9469H58.2883V54.5071H65.3316V50.4272H63.5696V49.0674H60.0498V44.9874H65.3316V40.9075Z" fill="#EFFF04"/>
<path d="M18.3104 65.65C15.6087 65.65 13.4471 64.8812 11.8257 63.3432L13.8192 60.5366C15.1045 61.8132 16.6601 62.4512 18.4855 62.4512C19.1279 62.4512 19.6321 62.3426 19.9971 62.1249C20.3768 61.8926 20.5666 61.6025 20.5666 61.2546C20.5666 60.9499 20.3621 60.703 19.9531 60.5145C19.5441 60.3118 19.0328 60.1665 18.4197 60.0795C17.8062 59.978 17.1415 59.8256 16.4262 59.6225C15.7104 59.4048 15.0463 59.1584 14.4327 58.8829C13.8192 58.5927 13.3084 58.1357 12.8994 57.5117C12.4903 56.8878 12.2858 56.1411 12.2858 55.2708C12.2858 53.9942 12.8042 52.9061 13.8414 52.0066C14.8929 51.1071 16.3169 50.6576 18.1134 50.6576C20.4942 50.6576 22.473 51.3324 24.0504 52.6814L21.9911 55.3578C20.764 54.3567 19.3405 53.8564 17.7191 53.8564C16.6677 53.8564 16.1417 54.2043 16.1417 54.9007C16.1417 55.1763 16.3462 55.4156 16.7552 55.6187C17.1643 55.8073 17.6755 55.9526 18.2886 56.0541C18.9017 56.1557 19.5592 56.3151 20.2603 56.5328C20.9761 56.7359 21.6403 56.9823 22.2538 57.2724C22.8674 57.5625 23.3782 58.0125 23.7872 58.6214C24.1962 59.2303 24.4007 59.9563 24.4007 60.7975C24.4007 62.2772 23.8677 63.4593 22.8016 64.3442C21.7355 65.2146 20.2385 65.65 18.3104 65.65ZM46.3345 65.65C44.0707 65.65 42.1865 64.9536 40.682 63.5609C39.1776 62.154 38.4258 60.348 38.4258 58.1428C38.4258 55.9234 39.1705 54.1174 40.6603 52.7246C42.1647 51.3324 44.056 50.636 46.3345 50.636C49.2701 50.636 51.3952 51.9342 52.7098 54.5307L49.4675 56.0541C49.2189 55.4593 48.8028 54.9585 48.2186 54.5528C47.6727 54.1541 47.0121 53.9404 46.3345 53.9434C45.1514 53.9434 44.1729 54.3496 43.3989 55.1617C42.6396 55.9596 42.2599 56.9531 42.2599 58.1428C42.2599 59.3324 42.6396 60.3334 43.3989 61.1455C44.1729 61.9434 45.1514 62.3426 46.3345 62.3426C47.0121 62.3455 47.6727 62.1319 48.2186 61.7332C48.8028 61.327 49.2189 60.8267 49.4675 60.2319L52.7098 61.7549C52.1545 62.8575 51.3516 63.7857 50.2997 64.5403C49.263 65.28 47.9412 65.65 46.3345 65.65ZM80.9517 65.3886H77.1834V59.5571H71.1148V65.3886H67.347V50.8753H71.1148V56.2935H77.1834V50.8753H80.9517V65.3886ZM109.256 63.5393C107.78 64.9461 105.918 65.65 103.669 65.65C101.42 65.65 99.5503 64.9461 98.0605 63.5393C96.5854 62.132 95.8478 60.3334 95.8478 58.1428C95.8478 55.9521 96.5854 54.1536 98.0605 52.7467C99.5503 51.3394 101.42 50.636 103.669 50.636C105.918 50.636 107.78 51.3394 109.256 52.7467C110.731 54.154 111.468 55.9526 111.468 58.1428C111.468 60.333 110.731 62.132 109.256 63.5393ZM103.669 62.3426C104.852 62.3426 105.809 61.9434 106.539 61.1455C107.269 60.3475 107.634 59.3469 107.634 58.1428C107.634 56.9386 107.269 55.938 106.539 55.14C105.808 54.3421 104.852 53.9434 103.669 53.9434C102.471 53.9434 101.507 54.3421 100.777 55.14C100.047 55.938 99.6819 56.939 99.6819 58.1428C99.6819 59.3465 100.047 60.348 100.777 61.1455C101.508 61.9429 102.471 62.3426 103.669 62.3426ZM139.036 63.5393C137.561 64.9461 135.699 65.65 133.45 65.65C131.201 65.65 129.331 64.9461 127.841 63.5393C126.366 62.132 125.629 60.3334 125.629 58.1428C125.629 55.9521 126.366 54.1536 127.841 52.7467C129.331 51.3394 131.201 50.636 133.45 50.636C135.699 50.636 137.561 51.3394 139.036 52.7467C140.511 54.154 141.249 55.9526 141.249 58.1428C141.249 60.333 140.511 62.132 139.036 63.5393ZM133.45 62.3426C134.633 62.3426 135.59 61.9434 136.32 61.1455C137.05 60.3475 137.415 59.3469 137.415 58.1428C137.415 56.9386 137.05 55.938 136.32 55.14C135.589 54.3421 134.633 53.9434 133.45 53.9434C132.252 53.9434 131.288 54.3421 130.558 55.14C129.827 55.938 129.462 56.939 129.462 58.1428C129.462 59.3465 129.828 60.348 130.558 61.1455C131.288 61.9429 132.252 62.3426 133.45 62.3426ZM165.794 65.3886H156.154V50.8753H159.923V62.1249H165.794V65.3886Z" fill="black"/>
<path fill-rule="evenodd" clip-rule="evenodd" d="M9.57933 31.8186C9.39376 31.8186 9.21576 31.7461 9.08415 31.6168C9.01931 31.5531 8.96781 31.4772 8.93262 31.3936C8.89744 31.31 8.87928 31.2203 8.87917 31.1297V23.8162C8.87908 23.7311 8.862 23.6468 8.82893 23.5683C8.79586 23.4898 8.74745 23.4185 8.68649 23.3587C8.56341 23.2374 8.39629 23.1692 8.22161 23.1692H0.700165C0.51459 23.1692 0.33659 23.0968 0.204984 22.9675C0.140082 22.9037 0.0885507 22.8277 0.0533672 22.7441C0.0181836 22.6604 4.52889e-05 22.5706 0 22.4799L0 0.689316C0 0.599038 0.0179894 0.509229 0.0530213 0.425533C0.0880532 0.341837 0.140128 0.265664 0.204984 0.201717C0.270143 0.137581 0.347348 0.0867783 0.432218 0.0521928C0.517258 0.0176274 0.608279 -0.000102212 0.700165 4.43245e-07H8.17711C8.36192 0.000759713 8.53905 0.0735289 8.6704 0.202657C8.73496 0.266365 8.78622 0.342108 8.82123 0.425542C8.85624 0.508975 8.87432 0.598455 8.87443 0.688846V22.4206C8.87405 22.5062 8.89096 22.5909 8.92414 22.6698C8.95728 22.7488 9.00557 22.8208 9.06711 22.881C9.19172 23.003 9.35985 23.0711 9.53483 23.0705H19.3944C19.579 23.0705 19.7561 23.1428 19.8872 23.2717C20.0179 23.4005 20.0913 23.575 20.0913 23.7569V31.118C20.0912 31.2083 20.0731 31.2978 20.0381 31.3813C20.0031 31.4647 19.9518 31.5404 19.8872 31.6041C19.7562 31.7337 19.5789 31.8065 19.3939 31.8068L9.58028 31.8181L9.57933 31.8186ZM37.9438 0.0197489C37.7593 0.0197498 37.5822 0.0920677 37.451 0.220995C37.3203 0.349831 37.247 0.524275 37.247 0.706244V8.01976C37.2469 8.10488 37.2298 8.18914 37.1967 8.26767C37.1637 8.3462 37.1152 8.41744 37.0543 8.47727C36.9312 8.59858 36.7641 8.66676 36.5899 8.66676H29.0699C28.8853 8.66676 28.7082 8.73908 28.577 8.86801C28.4464 8.99684 28.373 9.17129 28.373 9.35325V31.1471C28.373 31.3291 28.4464 31.5035 28.577 31.6324C28.7083 31.7611 28.8854 31.8333 29.0699 31.8331H47.7665C47.8579 31.8331 47.9484 31.8153 48.033 31.7809C48.1175 31.7466 48.1944 31.6961 48.2593 31.6324C48.324 31.5689 48.3754 31.4932 48.4104 31.4098C48.4454 31.3265 48.4634 31.237 48.4633 31.1466V23.7852C48.4632 23.6948 48.4451 23.6053 48.4101 23.5219C48.3751 23.4384 48.3238 23.3627 48.2593 23.299C48.1283 23.1695 47.9512 23.0967 47.7665 23.0963H37.904C37.7298 23.0963 37.5627 23.0281 37.4396 22.9068C37.3788 22.847 37.3304 22.7757 37.2975 22.6972C37.2645 22.6186 37.2475 22.5344 37.2474 22.4493V20.3564C37.2475 20.2714 37.2645 20.1871 37.2975 20.1086C37.3304 20.0301 37.3788 19.9588 37.4396 19.8989C37.5627 19.7776 37.7298 19.7094 37.904 19.7094H46.3695C46.4608 19.7094 46.5517 19.6916 46.636 19.6573C46.7202 19.6229 46.7974 19.5722 46.8623 19.5087C46.9269 19.445 46.9782 19.3692 47.0133 19.2858C47.0483 19.2025 47.0663 19.1132 47.0663 19.023V12.8882C47.0662 12.7978 47.0481 12.7084 47.0131 12.6249C46.9781 12.5415 46.9268 12.4657 46.8623 12.402C46.7312 12.2725 46.5539 12.1996 46.369 12.1994H37.904C37.7298 12.1994 37.5627 12.1312 37.4396 12.0099C37.3788 11.95 37.3304 11.8788 37.2975 11.8002C37.2645 11.7217 37.2475 11.6375 37.2474 11.5524V9.41203C37.2475 9.32694 37.2645 9.2427 37.2975 9.16418C37.3304 9.08565 37.3788 9.0144 37.4396 8.95452C37.5627 8.83321 37.7298 8.76503 37.904 8.76503H47.7665C47.8579 8.76495 47.9484 8.74723 48.033 8.71284C48.1177 8.67852 48.1944 8.62773 48.2593 8.56426C48.3241 8.50073 48.3755 8.42494 48.4103 8.34138C48.4453 8.25811 48.4633 8.16877 48.4633 8.07854V0.714707C48.4633 0.624471 48.4453 0.53513 48.4103 0.451864C48.3752 0.368291 48.3238 0.292444 48.259 0.228692C48.1943 0.16494 48.1174 0.114543 48.033 0.080405C47.9484 0.0460193 47.8579 0.0282932 47.7665 0.0282126L37.9438 0.0197489ZM76.9821 4.43245e-07H57.44C57.2552 0.000759713 57.0781 0.0735289 56.9467 0.202657C56.8822 0.266403 56.8311 0.342165 56.7961 0.425596C56.7612 0.509028 56.7432 0.598488 56.7432 0.688846V31.0672C56.7432 31.2491 56.8165 31.4236 56.9472 31.5524C57.0784 31.6813 57.2555 31.7537 57.44 31.7537H64.9198C65.1043 31.7537 65.2814 31.6813 65.4126 31.5524C65.5433 31.4236 65.6166 31.2491 65.6166 31.0672V9.40874C65.6166 9.23711 65.6858 9.07207 65.8093 8.95029C65.9328 8.82839 66.0996 8.75965 66.2737 8.75892H75.6277C75.802 8.75953 75.969 8.82828 76.0926 8.95029C76.2157 9.07207 76.2848 9.23711 76.2848 9.40874V31.0672C76.2848 31.2491 76.3582 31.4236 76.4888 31.5524C76.6201 31.6815 76.7974 31.7538 76.9821 31.7537H84.4614C84.6461 31.7538 84.8234 31.6815 84.9547 31.5524C85.0854 31.4236 85.1588 31.2491 85.1588 31.0672V9.40874C85.1588 9.23711 85.2279 9.07207 85.351 8.95029C85.4746 8.82828 85.6416 8.75953 85.8158 8.75892H95.1211C95.2953 8.75953 95.4624 8.82828 95.586 8.95029C95.7091 9.07207 95.7782 9.23711 95.7782 9.40874V31.0926C95.7782 31.2745 95.8515 31.449 95.9822 31.5778C96.1136 31.7067 96.2908 31.7788 96.4755 31.7786H103.855C104.039 31.7787 104.216 31.7066 104.348 31.5778C104.478 31.449 104.552 31.2745 104.552 31.0926V9.44824C104.552 9.35784 104.534 9.26836 104.499 9.18493C104.464 9.1015 104.413 9.02575 104.348 8.96205C104.217 8.83249 104.04 8.75964 103.855 8.75939H96.5351C96.3609 8.75939 96.1938 8.69121 96.0707 8.5699C96.0098 8.51007 95.9614 8.43883 95.9283 8.3603C95.8952 8.28177 95.8782 8.19751 95.8781 8.11239V0.711416C95.878 0.6208 95.8598 0.531103 95.8246 0.447496C95.7894 0.363889 95.7379 0.288028 95.6731 0.224287C95.5419 0.0949812 95.3639 0.0225701 95.1784 0.0225701H76.9821V4.43245e-07ZM149.47 0.717058V31.0954C149.47 31.2774 149.543 31.4518 149.674 31.5806C149.805 31.7094 149.982 31.7815 150.167 31.7814H157.644C157.829 31.7814 158.006 31.709 158.137 31.5806C158.202 31.5172 158.254 31.4417 158.289 31.3585C158.325 31.2752 158.343 31.1858 158.344 31.0954V9.41438C158.344 9.32929 158.361 9.24505 158.394 9.16653C158.427 9.088 158.475 9.01675 158.536 8.95687C158.659 8.83556 158.827 8.76738 159.001 8.76738H168.303C168.477 8.76738 168.645 8.83556 168.768 8.95687C168.829 9.01671 168.877 9.08795 168.91 9.16647C168.943 9.245 168.96 9.32926 168.96 9.41438V31.1518C168.96 31.237 168.977 31.3214 169.01 31.4001C169.044 31.4788 169.092 31.5502 169.153 31.6103C169.215 31.6704 169.288 31.718 169.368 31.7504C169.448 31.7828 169.534 31.7993 169.62 31.7988H177.177C177.351 31.7988 177.518 31.7306 177.642 31.6093C177.703 31.5495 177.751 31.4782 177.784 31.3997C177.817 31.3212 177.834 31.2369 177.834 31.1518V9.23147C177.834 9.14635 177.817 9.06209 177.784 8.98357C177.751 8.90504 177.703 8.8338 177.642 8.77397C177.518 8.65265 177.351 8.58447 177.177 8.58447H169.62C169.446 8.58374 169.279 8.51521 169.154 8.39357C169.093 8.33359 169.045 8.26222 169.011 8.18355C168.978 8.10488 168.961 8.02046 168.96 7.93513V0.719879C168.961 0.629505 168.943 0.539975 168.908 0.456566C168.873 0.372825 168.822 0.296758 168.757 0.23275C168.692 0.168665 168.615 0.117866 168.53 0.0832262C168.446 0.048443 168.355 0.03055 168.263 0.0305636H150.167C149.982 0.0305645 149.805 0.102882 149.674 0.23181C149.543 0.360645 149.47 0.53509 149.47 0.717058ZM122.357 8.7561C122.183 8.7561 122.015 8.82428 121.892 8.94559C121.831 9.00546 121.783 9.07672 121.75 9.15524C121.717 9.23377 121.7 9.31801 121.7 9.4031V22.4404C121.7 22.5255 121.717 22.6097 121.75 22.6882C121.783 22.7668 121.831 22.838 121.892 22.8979C122.015 23.0192 122.183 23.0874 122.357 23.0874H131.659C131.834 23.0874 132.001 23.0192 132.124 22.8979C132.185 22.8381 132.233 22.7668 132.266 22.6883C132.299 22.6098 132.316 22.5255 132.316 22.4404V9.4031C132.316 9.23147 132.247 9.0669 132.124 8.94559C132 8.82428 131.834 8.7561 131.659 8.7561H122.357ZM113.523 0.0197489C113.338 0.0197498 113.161 0.0920677 113.03 0.220995C112.899 0.349831 112.826 0.524275 112.826 0.706244V22.5024C112.826 22.6844 112.899 22.8589 113.03 22.9877C113.161 23.1165 113.338 23.1886 113.523 23.1885H120.98C121.154 23.1885 121.321 23.2567 121.444 23.378C121.505 23.4378 121.554 23.509 121.587 23.5876C121.62 23.6661 121.637 23.7504 121.637 23.8355V31.149C121.637 31.2394 121.656 31.3287 121.691 31.412C121.727 31.4953 121.778 31.5708 121.843 31.6342C121.974 31.7631 122.152 31.835 122.337 31.835H140.482C140.667 31.835 140.844 31.7626 140.975 31.6342C141.107 31.5059 141.181 31.331 141.181 31.149V0.705773C141.182 0.586278 141.15 0.468827 141.09 0.365347C141.03 0.261603 140.943 0.175362 140.839 0.1152C140.732 0.0518375 140.609 0.0188246 140.485 0.0197489H113.514H113.523Z" fill="#F2EEE0"/>
</svg>
