<svg width="179" height="31" viewBox="0 0 179 31" fill="none" xmlns="http://www.w3.org/2000/svg">
<path fill-rule="evenodd" clip-rule="evenodd" d="M8.746 18.3829C6.231 17.4009 4.059 16.5529 4.059 14.5959C4.059 12.3359 6.117 11.5289 8.044 11.5289C11.376 11.5289 13.146 13.3709 13.164 13.3889L13.334 13.5709L14.825 11.0679L14.734 10.9649C14.648 10.8689 12.582 8.60694 8.128 8.60694C4.581 8.60694 0.764 10.4809 0.764 14.5969C0.764 18.4879 4.278 19.8799 7.376 21.1079C9.895 22.1059 12.069 22.9679 12.069 24.9069C12.069 27.0839 10.048 28.0579 8.044 28.0579C4.256 28.0579 1.947 25.5979 1.924 25.5729L1.771 25.4079L0 27.7549L0.1 27.8699C0.13 27.9009 0.803 28.6629 2.12 29.4309C3.328 30.1379 5.33 30.9809 8.002 30.9809C12.269 30.9809 15.366 28.4259 15.366 24.9069C15.366 20.9669 11.848 19.5929 8.746 18.3829ZM38.04 19.6899C38.04 24.3829 34.53 28.0579 30.05 28.0579C25.572 28.0579 22.062 24.3829 22.062 19.6909C22.062 15.1359 25.572 11.5709 30.051 11.5709C34.531 11.5709 38.041 15.1359 38.041 19.6909L38.04 19.6899ZM30.05 8.60794C23.724 8.60794 18.767 13.4759 18.767 19.6919C18.767 26.0219 23.724 30.9819 30.051 30.9819C36.379 30.9819 41.336 26.0219 41.336 19.6919C41.336 13.4759 36.379 8.60794 30.051 8.60794H30.05ZM55.294 0.690943C54.8558 0.62919 54.4135 0.600776 53.971 0.605943C51.735 0.605943 46.534 1.38294 46.534 8.58794V9.40094H43.677V12.1529H46.534V30.4959H49.742V12.1529H55.117V9.39994H49.742V8.58694C49.742 6.69594 50.331 3.52194 54.262 3.52194C54.818 3.52194 55.223 3.60194 55.227 3.60194L55.45 3.64694V0.717943L55.294 0.690943ZM70.44 27.8919L70.208 27.9419C69.8995 27.9999 69.5859 28.0271 69.272 28.0229C67.55 28.0229 64.661 27.3129 64.661 22.5599V12.2119H70.016V9.40694H64.66V3.23994H61.43V9.40594H58.583V12.2109H61.387V22.8559C61.387 29.9409 66.167 30.9989 69.017 30.9989C69.79 30.9989 70.263 30.9149 70.282 30.9109L70.44 30.8829V27.8919ZM76.967 24.1269C76.967 24.1269 79.312 26.4739 82.787 26.4739C84.296 26.4739 85.592 25.8039 85.592 24.5469C85.592 21.3619 75.208 21.7809 75.208 14.9099C75.208 10.9299 78.768 8.62394 83.373 8.62394C88.189 8.62394 90.533 11.0539 90.533 11.0539L88.566 14.9939C88.566 14.9939 86.598 13.1499 83.332 13.1499C81.95 13.1499 80.61 13.7359 80.61 15.0769C80.61 18.0939 90.995 17.7169 90.995 24.5869C90.995 28.1489 87.896 30.9969 82.83 30.9969C77.511 30.9969 74.537 27.8549 74.537 27.8549L76.967 24.1269ZM109.43 17.1729C109.346 14.2809 107.545 12.7299 105.2 12.7299C102.48 12.7299 100.594 14.4069 100.091 17.1729H109.43ZM105.326 8.62394C111.482 8.62394 114.79 13.1069 114.79 18.7639C114.79 19.3919 114.665 20.8179 114.665 20.8179H99.925C100.259 24.5479 103.15 26.4739 106.331 26.4739C109.765 26.4739 112.486 24.1269 112.486 24.1269L114.539 27.9409C114.539 27.9409 111.272 30.9979 105.954 30.9979C98.877 30.9979 94.48 25.8879 94.48 19.8119C94.48 13.2339 98.962 8.62394 105.326 8.62394ZM120.142 9.12794H125.252V12.8149C125.252 13.6099 125.168 14.3229 125.168 14.3229H125.251C126.215 11.2649 128.769 8.83394 132.035 8.83394C132.538 8.83394 132.998 8.91794 132.998 8.91794V14.1559C132.998 14.1559 132.454 14.0719 131.742 14.0719C129.48 14.0719 126.926 15.3699 125.922 18.5549C125.587 19.6019 125.462 20.7749 125.462 22.0319V30.4959H120.142V9.12794ZM135.314 9.12794H140.925L145.364 22.3669C145.784 23.6249 146.077 25.0449 146.116 25.0449H146.202C146.243 25.0449 146.536 23.6249 146.955 22.3669L151.395 9.12694H157.005L149.342 30.4959H143.061L135.314 9.12794ZM173.265 17.1729C173.182 14.2809 171.381 12.7299 169.036 12.7299C166.314 12.7299 164.429 14.4069 163.927 17.1729H173.265ZM169.162 8.62394C175.318 8.62394 178.626 13.1069 178.626 18.7639C178.626 19.3919 178.5 20.8179 178.5 20.8179H163.76C164.095 24.5479 166.984 26.4739 170.167 26.4739C173.6 26.4739 176.322 24.1269 176.322 24.1269L178.375 27.9409C178.375 27.9409 175.108 30.9979 169.79 30.9979C162.714 30.9979 158.316 25.8879 158.316 19.8119C158.316 13.2339 162.797 8.62394 169.162 8.62394Z" fill="#F2EEE0"/>
</svg>
