<svg width="198" height="86" viewBox="0 0 198 86" fill="none" xmlns="http://www.w3.org/2000/svg">
<path d="M30.7282 20.5186L15.3619 10.2593L0 20.5186V10.2593L15.3641 0L30.7304 10.2593L30.7282 20.5186Z" fill="#A435F0"/>
<path d="M0 29.1337H8.04838V51.7491C8.04838 57.592 11.8211 60.4402 15.3641 60.4402C18.9378 60.4402 22.682 57.5162 22.682 51.6707V29.1337H30.7304V52.2879C30.7304 57.6705 29.2673 61.8237 26.341 64.6719C23.4125 67.5174 19.7557 68.9036 15.2963 68.9036C10.8413 68.9036 7.18231 67.52 4.32382 64.6719C1.46314 61.8263 0 57.8273 0 52.5181V29.1337ZM100.312 57.2405C97.8754 59.7496 95.1 60.9789 91.9353 60.9789C86.1615 60.9789 82.2904 57.1747 81.8529 51.2837H107.857C107.857 51.2837 108.032 49.3816 108.032 47.5958C108.032 42.0564 106.501 37.4403 103.374 33.6714C100.316 29.9026 96.3269 28.0561 91.4695 28.0561C86.3495 28.0561 82.1569 29.9026 78.8304 33.6714C75.5717 37.4403 73.9095 42.3625 73.9095 48.5191V48.8226C73.9095 54.9008 75.5717 59.7471 78.8304 63.3642C82.0891 66.9787 86.413 68.8251 91.6685 68.8251C97.7791 68.8251 102.641 66.0377 106.289 61.2319L100.312 57.2405ZM85.0154 38.3635C86.8088 36.7472 89.0068 35.9024 91.4673 35.9024C93.7943 35.9024 95.7233 36.7472 97.3876 38.4419C98.9754 39.9848 99.8328 41.8794 99.9071 44.0572H82.0585C82.3166 41.806 83.3008 39.909 85.0176 38.366L85.0154 38.3635ZM181.329 74.0509C178.064 82.9671 174.648 85.9998 169.41 85.9998H165.779V77.7489H168.714C170.516 77.7489 172.192 76.9648 173.788 72.7053L175.385 68.4407L161.615 29.1337H169.797L179.575 57.4428L189.62 29.1337H197.8L181.329 74.0509ZM62.0622 14.2886V32.6445C59.4246 29.9127 55.3217 28.2863 51.3544 28.2863C46.6303 28.2863 42.6411 30.2087 39.3824 34.1293C36.1893 37.9765 34.5927 42.7444 34.5927 48.514C34.5927 54.2861 36.1893 59.054 39.3824 62.9772C42.6411 66.8244 46.6325 68.7493 51.3544 68.7493C56.8002 68.7493 60.2426 66.273 62.0622 64.3329V67.9019H70.045V14.2911L62.0622 14.2886ZM59.6674 56.9799C57.7384 59.2109 55.278 60.3668 52.4173 60.3668C49.5566 60.3668 47.2296 59.2109 45.3006 56.9799C43.4416 54.749 42.5077 51.9034 42.5077 48.5191C42.5077 45.1322 43.4394 42.2866 45.3006 40.0557C47.2296 37.8247 49.5566 36.6713 52.4173 36.6713C55.278 36.6713 57.7384 37.8247 59.6674 40.0557C61.662 42.2866 62.6637 45.1322 62.6637 48.5191C62.6637 51.9034 61.662 54.749 59.6674 56.9799ZM149.206 28.3647C143.143 28.3647 139.992 31.2736 137.833 34.0761C136.969 32.1715 134.537 28.3647 128.855 28.3647C124.052 28.3647 121.222 31.1724 119.809 33.1706V29.1387H111.897V67.907H119.809V45.5976C119.809 40.3668 122.604 36.598 126.327 36.598C130.121 36.598 132.315 39.9064 132.315 45.2131V67.9044H140.23V45.5951C140.23 40.2884 142.955 36.5954 146.879 36.5954C150.671 36.5954 152.865 39.9039 152.865 45.2081V67.9019H160.847V43.9029C160.847 33.7954 156.15 28.3673 149.206 28.3673V28.3647Z" fill="#F2EEE0"/>
</svg>
